<svg id="Layer_1" data-name="Layer 1" xmlns="http://www.w3.org/2000/svg" viewBox="0 0 46 46">
    <defs>
    <style>
        .cls-1{fill:#fff;}
        .cls-2{fill:#2b6ed0;}
        .cls-3{mask:url(#mask);}
        </style>
        <mask id="mask" x="0" y="0" width="46" height="46" maskUnits="userSpaceOnUse">
            <g id="b">
                <rect id="a" class="cls-1" width="46" height="46" rx="2" ry="2"></rect>
            </g>
        </mask>
    </defs>
    <rect id="a-2" data-name="a" class="cls-2" width="46" height="46" rx="2" ry="2">
    </rect>
    <g class="cls-3">
        <path class="cls-1" d="M25.17,22.58a1.67,1.67,0,1,1-1.67-1.66,1.67,1.67,0,0,1,1.67,1.66m6.24,5.66a.73.73,0,0,1,0,.21c-.23,1.21-.47,2.43-.7,3.64a2,2,0,0,1-.55,1,4.18,4.18,0,0,1-1.11.78,9.36,9.36,0,0,1-2.36.78A14.55,14.55,0,0,1,24,35a16,16,0,0,1-4.53-.53,7.61,7.61,0,0,1-1.76-.72,3.87,3.87,0,0,1-.8-.6,2,2,0,0,1-.57-1.06c-.23-1.21-.47-2.43-.7-3.64a.81.81,0,0,1,0-.19.37.37,0,0,1,.55-.32l.08,0a10.17,10.17,0,0,0,3,1.41,14,14,0,0,0,3,.57,15.14,15.14,0,0,0,3.47-.08A12.66,12.66,0,0,0,30,28.5c.27-.15.52-.33.78-.49l.13-.08a.37.37,0,0,1,.54.31M30.14,14.33a1.4,1.4,0,0,1-.33.27A4.25,4.25,0,0,1,28.7,15a15.71,15.71,0,0,1-2.22.37,29,29,0,0,1-2.9.14,29.35,29.35,0,0,1-3.32-.18,12.24,12.24,0,0,1-2.41-.48,5.27,5.27,0,0,1-.68-.29,1.07,1.07,0,0,1-.3-.23.33.33,0,0,1,0-.5,1.36,1.36,0,0,1,.31-.24,4.11,4.11,0,0,1,1-.39,15.64,15.64,0,0,1,2.29-.39,29,29,0,0,1,3.8-.13,23.57,23.57,0,0,1,3.48.33,8,8,0,0,1,1.59.41,4,4,0,0,1,.52.26.83.83,0,0,1,.22.2.32.32,0,0,1,0,.43M23.48,25.88a3.3,3.3,0,1,1,3.36-3.28,3.32,3.32,0,0,1-3.36,3.28M33.73,13.67a2.64,2.64,0,0,0-.56-.56,6.31,6.31,0,0,0-1.54-.84,16.78,16.78,0,0,0-3.6-.93,30.27,30.27,0,0,0-9,0A18.77,18.77,0,0,0,16,12a8,8,0,0,0-1.9.88,3.17,3.17,0,0,0-.75.66A1.38,1.38,0,0,0,13,14.71c.13.83.26,1.66.39,2.48q.3,1.83.62,3.66c.23,1.35.47,2.71.7,4.06a1.53,1.53,0,0,0,.4.81,4.38,4.38,0,0,0,.44.41,7.07,7.07,0,0,0,1.86,1,15.74,15.74,0,0,0,5,1A19.49,19.49,0,0,0,26.1,28a15,15,0,0,0,3.07-.72,8.28,8.28,0,0,0,2.09-1,3.31,3.31,0,0,0,.72-.68,1.36,1.36,0,0,0,.27-.61c.3-1.77.62-3.54.91-5.32s.54-3.29.81-4.94a1.34,1.34,0,0,0-.25-1"></path>
    </g>
</svg>
